<svg width="50" height="55" viewBox="0 0 50 55" fill="none" xmlns="http://www.w3.org/2000/svg">
<path d="M10.3852 5.58594C7.5322 5.58594 5.42119 8.33267 5.51568 11.3115C5.60636 14.1734 5.48856 17.8798 4.64025 20.9025C3.78941 23.934 2.35042 25.8544 0 26.1009V28.8845C2.35042 29.1311 3.78941 31.0514 4.64025 34.0829C5.48856 37.1056 5.60636 40.812 5.51568 43.6739C5.42119 46.6523 7.5322 49.3995 10.3856 49.3995H39.6186C42.4716 49.3995 44.5822 46.6528 44.4877 43.6739C44.397 40.812 44.5148 37.1056 45.3631 34.0829C46.2144 31.0514 47.6496 29.1311 50 28.8845V26.1009C47.6496 25.8544 46.2144 23.934 45.3631 20.9025C44.5148 17.8803 44.397 14.1734 44.4877 11.3115C44.5822 8.33314 42.4716 5.58594 39.6186 5.58594H10.3847H10.3852ZM33.8983 32.556C33.8983 36.6577 31.1169 39.1453 26.5013 39.1453H18.6441C18.176 39.1453 17.7966 38.7279 17.7966 38.2131V16.7724C17.7966 16.2575 18.176 15.8402 18.6441 15.8402H26.4564C30.3051 15.8402 32.8309 18.1334 32.8309 21.6543C32.8309 24.1256 31.1318 26.3382 28.9669 26.7255V26.8546C31.914 27.2103 33.8983 29.455 33.8983 32.556ZM25.6445 18.7953H21.1644V25.756H24.9377C27.8547 25.756 29.4631 24.464 29.4631 22.1545C29.4631 19.9903 28.0801 18.7953 25.6445 18.7953ZM21.1644 28.5181V36.1892H25.8093C28.8462 36.1892 30.4551 34.8487 30.4551 32.3295C30.4551 29.8097 28.8013 28.5177 25.614 28.5177H21.1644V28.5181Z" fill="#7E13F8"/>
<path d="M33.8983 32.556C33.8983 36.6577 31.117 39.1453 26.5013 39.1453H18.6441C18.176 39.1453 17.7966 38.7279 17.7966 38.2131V16.7724C17.7966 16.2575 18.176 15.8402 18.6441 15.8402H26.4564C30.3051 15.8402 32.8309 18.1334 32.8309 21.6543C32.8309 24.1256 31.1318 26.3382 28.967 26.7255V26.8546C31.914 27.2103 33.8983 29.455 33.8983 32.556ZM25.6445 18.7953H21.1644V25.756H24.9377C27.8547 25.756 29.4631 24.464 29.4631 22.1545C29.4631 19.9903 28.0801 18.7953 25.6445 18.7953ZM21.1644 28.5181V36.1892H25.8093C28.8462 36.1892 30.4551 34.8487 30.4551 32.3295C30.4551 29.8097 28.8013 28.5177 25.614 28.5177H21.1644V28.5181Z" fill="white"/>
</svg>
