<svg width="50" height="55" viewBox="0 0 50 55" fill="none" xmlns="http://www.w3.org/2000/svg">
<path fill-rule="evenodd" clip-rule="evenodd" d="M6.94203 49.5018L2.92969 0H47.019L43.0023 49.4936L24.9477 55L6.94203 49.5018Z" fill="#0071BC"/>
<path fill-rule="evenodd" clip-rule="evenodd" d="M25.0114 50.7885L39.5823 46.3792L42.9963 4.12247H25.0114V50.7885Z" fill="#29ABE2"/>
<path fill-rule="evenodd" clip-rule="evenodd" d="M12.1139 22.3092L12.5973 28.3714L25.0114 22.3092V16.2371L12.1139 22.3092Z" fill="#B3B3B3"/>
<path fill-rule="evenodd" clip-rule="evenodd" d="M38.7604 9.75542L25.0114 16.2371V22.3092L38.2863 15.8177L38.7604 9.75542Z" fill="#E6E6E6"/>
<path fill-rule="evenodd" clip-rule="evenodd" d="M25.0114 38.171L24.9687 38.178L18.8122 36.3593L18.41 31.5238H12.8692L13.6424 41.0501L24.9675 44.4994L25.0114 44.488V38.171Z" fill="#E6E6E6"/>
<path fill-rule="evenodd" clip-rule="evenodd" d="M25.0114 22.3092V28.3714H31.7517L31.1391 36.2974L25.0114 38.1762V44.4927L36.2989 41.0434L37.7852 22.3092H25.0114Z" fill="white"/>
<path fill-rule="evenodd" clip-rule="evenodd" d="M25.0114 22.3092H12.1139L12.5973 28.3714H25.0114V22.3092Z" fill="#E6E6E6"/>
<path fill-rule="evenodd" clip-rule="evenodd" d="M25.0114 15.8177V9.75542H24.9554H11.134L11.6231 15.8177H25.0114Z" fill="#E6E6E6"/>
<path fill-rule="evenodd" clip-rule="evenodd" d="M25.0114 9.75542V15.7417V15.8177H38.2863L38.7604 9.75542H25.0114Z" fill="white"/>
</svg>
