<svg width="44" height="44" viewBox="0 0 44 44" fill="none" xmlns="http://www.w3.org/2000/svg">
<path fill-rule="evenodd" clip-rule="evenodd" d="M22.0002 1.57589C10.4443 1.57589 1.07367 10.9448 1.07367 22.5024C1.07367 31.7483 7.06975 39.5924 15.3845 42.3595C16.4303 42.5532 16.8143 41.9056 16.8143 41.3528C16.8143 40.8538 16.7949 39.2054 16.7859 37.4567C10.9641 38.7226 9.73564 34.9877 9.73564 34.9877C8.78371 32.5689 7.41213 31.9257 7.41213 31.9257C5.51347 30.6269 7.55525 30.6536 7.55525 30.6536C9.65663 30.8012 10.7631 32.8101 10.7631 32.8101C12.6295 36.0093 15.6586 35.0844 16.8528 34.5497C17.0406 33.1971 17.5829 32.274 18.1814 31.7514C13.5333 31.2222 8.64718 29.4279 8.64718 21.4094C8.64718 19.1247 9.46465 17.258 10.8033 15.7925C10.586 15.2654 9.86975 13.137 11.006 10.2545C11.006 10.2545 12.7633 9.69207 16.7623 12.3995C18.4316 11.9359 20.2218 11.7034 22.0002 11.6954C23.7786 11.7034 25.5702 11.9359 27.2426 12.3995C31.2367 9.69207 32.9916 10.2545 32.9916 10.2545C34.1306 13.137 33.414 15.2654 33.1967 15.7925C34.5385 17.258 35.3504 19.1247 35.3504 21.4094C35.3504 29.447 30.4549 31.2167 25.7951 31.7348C26.5457 32.3842 27.2145 33.6577 27.2145 35.6101C27.2145 38.4101 27.1902 40.6636 27.1902 41.3528C27.1902 41.9097 27.5669 42.5622 28.6277 42.3567C36.9379 39.5865 42.9264 31.7452 42.9264 22.5024C42.9264 10.9448 33.5571 1.57589 22.0002 1.57589ZM8.91133 31.3862C8.86524 31.4901 8.70168 31.5213 8.55267 31.4499C8.40088 31.3816 8.31564 31.2399 8.36484 31.1356C8.40989 31.0285 8.57381 30.9987 8.72524 31.0705C8.87737 31.1387 8.964 31.2818 8.91133 31.3862ZM9.94068 32.3046C9.84088 32.3972 9.64578 32.3542 9.51341 32.2079C9.37652 32.0621 9.35088 31.867 9.45207 31.773C9.55499 31.6805 9.7442 31.7238 9.88142 31.8697C10.0183 32.0174 10.045 32.2111 9.94068 32.3046ZM10.6469 33.4798C10.5186 33.5688 10.309 33.4853 10.1794 33.2992C10.0512 33.1132 10.0512 32.89 10.1822 32.8006C10.3121 32.7112 10.5186 32.7916 10.65 32.9763C10.7778 33.1655 10.7778 33.3886 10.6469 33.4798ZM11.8411 34.8408C11.7264 34.9673 11.4821 34.9333 11.3033 34.7607C11.1204 34.592 11.0694 34.3525 11.1845 34.226C11.3006 34.0992 11.5462 34.1349 11.7264 34.3061C11.908 34.4745 11.9635 34.7157 11.8411 34.8408ZM13.3847 35.3002C13.3341 35.4642 13.0988 35.5387 12.8617 35.469C12.6251 35.3973 12.4702 35.2053 12.518 35.0397C12.5672 34.8747 12.8035 34.7971 13.0423 34.8716C13.2786 34.943 13.4339 35.1336 13.3847 35.3002ZM15.1412 35.4951C15.1471 35.6677 14.9461 35.8108 14.6973 35.814C14.4471 35.8195 14.2447 35.6798 14.242 35.51C14.242 35.3357 14.4385 35.194 14.6887 35.1898C14.9375 35.185 15.1412 35.3236 15.1412 35.4951ZM16.8669 35.429C16.8967 35.5974 16.7238 35.7703 16.4767 35.8164C16.2338 35.8608 16.0088 35.7568 15.978 35.5898C15.9479 35.4172 16.1239 35.2443 16.3665 35.1996C16.6139 35.1566 16.8353 35.2578 16.8669 35.429Z" fill="#161614"/>
</svg>
