<svg width="38" height="50" viewBox="0 0 38 50" fill="none" xmlns="http://www.w3.org/2000/svg">
<g id="Group">
<path id="Vector" d="M1.11261 27.0674C1.18433 28.5449 2.66177 27.8563 3.32161 27.3973C3.95275 26.9527 4.13922 27.3256 4.1966 26.465C4.23963 25.8912 4.29701 25.3318 4.26832 24.758C3.30726 24.6719 2.27448 24.9015 1.48555 25.4752C1.06957 25.7621 0.323678 26.7088 1.11261 27.0674Z" fill="#F6D2A2"/>
<path id="Vector_2" d="M30.5612 45.2271C31.6944 45.9299 33.7743 48.0529 32.0673 49.0856C30.4321 50.5774 29.5141 47.436 28.0797 47.0057C28.6964 46.1594 29.471 45.3848 30.5612 45.2271Z" fill="#F6D2A2"/>
<path id="Vector_3" d="M10.2786 47.6226C8.94456 47.8234 8.19866 49.0283 7.07982 49.6451C6.03269 50.2619 5.63106 49.4443 5.54499 49.2722C5.38721 49.2005 5.40155 49.3439 5.14336 49.0857C4.16795 47.5509 6.14745 46.4321 7.18022 45.6718C8.61464 45.3849 9.51832 46.6329 10.2786 47.6226Z" fill="#F6D2A2"/>
<path id="Vector_4" d="M36.8583 26.8809C36.7865 28.3583 35.3091 27.6698 34.6493 27.2108C34.0181 26.7661 33.8316 27.1391 33.7743 26.2784C33.7312 25.7047 33.6739 25.1453 33.7025 24.5715C34.6636 24.4854 35.6964 24.7149 36.4853 25.2887C36.8869 25.5756 37.6472 26.5223 36.8583 26.8809Z" fill="#F6D2A2"/>
<path id="Vector_5" d="M32.9423 8.86467C38.0632 7.05731 34.0611 0.0430218 29.6001 3.14136C26.6739 0.631132 22.6432 0.172119 18.4117 0.172119C14.2662 0.502035 10.3216 1.26227 7.56749 3.67209C3.1208 0.803262 -0.981625 7.68845 4.23965 9.42409C2.77654 15.1044 4.44046 20.8994 4.21096 26.6801C3.99579 31.8727 2.6331 38.8296 5.51627 43.4914C7.96912 47.4791 13.2478 48.8992 17.594 49.057C23.1452 49.2578 29.8726 47.8951 32.5693 42.516C35.1513 37.3952 34.4341 31.012 34.1042 25.4895C33.7742 19.9097 34.391 14.2437 32.9423 8.86467Z" fill="#69D7E2"/>
<path id="Vector_6" d="M37.2456 26.0059C37.1021 25.7047 36.8296 25.3605 36.5714 25.174C35.9116 24.7006 35.0652 24.4424 34.1903 24.4137C34.1616 23.5244 34.1329 22.549 34.1329 21.3154V20.1966C34.1185 16.6679 34.0755 15.1187 33.8747 13.1823C33.7169 11.6618 33.473 10.2561 33.1288 8.93641C34.2907 8.49174 35.0509 7.76019 35.3521 6.81347C35.639 5.93848 35.4956 4.94873 35.0079 4.07374C34.5058 3.21309 33.7026 2.5676 32.7702 2.30941C31.7661 2.03687 30.6759 2.23769 29.6288 2.94055C28.6964 2.15162 27.6206 1.54917 26.4157 1.09016C24.2784 0.301227 21.7969 0 18.426 0V0.143442L18.4117 0C14.8113 0.286883 12.1433 0.846305 9.93429 1.92212C9.04495 2.35244 8.25603 2.86883 7.56751 3.47128C6.50604 2.81145 5.40154 2.65367 4.38311 2.96924C3.43639 3.25612 2.61878 3.9303 2.13107 4.80529C1.64337 5.68028 1.52862 6.68437 1.85854 7.54502C2.18845 8.40567 2.94869 9.07985 4.08188 9.49583C3.72327 10.9446 3.5368 12.4794 3.50811 14.172C3.47942 15.8216 3.55115 17.1413 3.80934 20.1248C3.99581 22.3482 4.06753 23.3666 4.09622 24.6002C3.12082 24.5572 2.14542 24.8154 1.41387 25.3461C1.15567 25.5326 0.868789 25.8625 0.739692 26.1781C0.553218 26.5797 0.624938 26.9383 0.997886 27.1535C1.05526 27.842 1.44256 28.1576 2.03067 28.1002C2.46099 28.0572 2.97738 27.8277 3.42205 27.5121C3.52246 27.4404 3.62287 27.383 3.72328 27.34C3.76631 27.3256 3.795 27.3113 3.83803 27.2969C3.83803 27.2969 3.92409 27.2682 3.95278 27.2539C3.99581 27.2395 4.03885 27.2252 4.06753 27.1965C4.03885 27.8707 3.98147 28.5735 3.85237 30.1801C3.70893 31.9875 3.63721 32.9772 3.60852 34.0817C3.47942 38.1841 3.96713 41.1677 5.43023 43.5345C5.88924 44.2804 6.44866 44.9402 7.10849 45.5427C6.9794 45.6287 6.43432 46.0304 6.26219 46.1595C5.65974 46.6185 5.24375 47.0058 4.9999 47.4361C4.68433 47.9955 4.68433 48.555 5.04294 49.1431L5.05728 49.1574L5.07162 49.1718C5.22941 49.3295 5.31548 49.3726 5.43023 49.3726H5.44457H5.47326C5.48761 49.4013 5.50195 49.4156 5.51629 49.4443C5.55933 49.516 5.60236 49.5734 5.64539 49.6308C6.004 50.0467 6.50604 50.1472 7.18022 49.7455C7.53882 49.559 7.79701 49.3439 8.34209 48.8849C8.35644 48.8705 8.35644 48.8705 8.37078 48.8562C9.24577 48.1103 9.6761 47.8377 10.3216 47.7373L10.5511 47.6943C10.6372 47.7373 10.7232 47.766 10.8236 47.8091C12.8605 48.6267 15.2273 49.0713 17.6228 49.1574C20.7211 49.2722 23.7047 48.8849 26.2292 47.9668C26.9034 47.723 27.5346 47.4361 28.137 47.1205C28.51 47.264 28.8255 47.5652 29.428 48.2681C29.4567 48.2968 29.4567 48.2968 29.471 48.3254C29.4997 48.3541 29.4997 48.3685 29.5141 48.3828C29.5427 48.4259 29.5858 48.4545 29.6145 48.4976C30.0878 49.057 30.4034 49.3295 30.762 49.4873C31.2354 49.6881 31.6944 49.5877 32.1677 49.1574C32.9997 48.641 33.0571 47.8377 32.512 46.9197C32.1247 46.2742 31.4505 45.6001 30.8194 45.1697C31.5653 44.4382 32.2108 43.5632 32.7128 42.5734C34.0898 39.8194 34.6206 36.6063 34.5919 32.4752C34.5775 31.0121 34.5202 29.7354 34.3624 27.2969V27.2252C34.4341 27.2539 34.5058 27.2969 34.5775 27.3543C35.0222 27.6555 35.5386 27.8994 35.9689 27.9424C36.557 27.9998 36.9443 27.6842 37.0017 26.9957C37.3603 26.7662 37.432 26.4076 37.2456 26.0059ZM32.6841 2.61064C33.5448 2.84014 34.2907 3.4426 34.7497 4.24587C35.2087 5.04914 35.3378 5.95282 35.0796 6.75609C34.8071 7.6024 34.1185 8.27658 33.0427 8.67821C32.8276 7.90363 32.5694 7.14339 32.2825 6.41184C32.6985 6.05323 32.8993 5.60856 32.5694 4.97742C32.2394 4.34628 31.6657 4.27456 31.0776 4.46103C30.7046 3.97333 30.2886 3.54301 29.8583 3.14137C30.805 2.53891 31.7804 2.36678 32.6841 2.61064ZM2.10239 7.45896C1.80116 6.68437 1.90157 5.76635 2.36058 4.96308C2.81959 4.1598 3.56549 3.52866 4.45483 3.27047C5.37285 2.99793 6.3626 3.12702 7.338 3.70079C6.77858 4.20284 6.27653 4.7766 5.84621 5.40774C5.10031 5.02045 4.34007 4.94873 3.90975 5.73766C3.46508 6.58397 3.98147 7.1147 4.71302 7.51634C4.61261 7.76019 4.5122 8.01838 4.42614 8.27658C4.32573 8.59215 4.22532 8.92206 4.13926 9.25198C3.09213 8.85034 2.40361 8.23354 2.10239 7.45896ZM3.83803 27.01C3.82368 27.01 3.73762 27.0387 3.73762 27.0531C3.69459 27.0674 3.65155 27.0818 3.60852 27.1104C3.49377 27.1535 3.37902 27.2252 3.26426 27.3113C2.86263 27.5981 2.37492 27.8133 2.00198 27.842C1.57165 27.885 1.3278 27.6986 1.28477 27.1822C1.586 27.0818 1.71509 27.01 1.82985 26.8379L1.60034 26.6658C1.51428 26.7805 1.42821 26.8236 1.17002 26.9096C1.15567 26.9096 1.15567 26.9096 1.14133 26.924C0.911822 26.7949 0.868789 26.5941 0.997886 26.3072C1.11264 26.049 1.37083 25.7478 1.586 25.59C2.27452 25.0879 3.19254 24.8441 4.11057 24.9014C4.11057 25.26 4.12491 25.6187 4.11057 25.9629C4.11057 26.0059 4.11057 26.0346 4.09622 26.0777C4.08188 26.2785 4.08188 26.3645 4.06753 26.465C4.0245 26.8809 3.99581 26.9383 3.83803 27.01ZM8.16996 48.6554C8.15562 48.6697 8.15562 48.6697 8.14127 48.684C7.61054 49.1431 7.35235 49.3295 7.02243 49.516C6.47735 49.8459 6.1044 49.7742 5.84621 49.4586C5.80318 49.4156 5.77449 49.3582 5.7458 49.3152C5.73146 49.3008 5.71711 49.2722 5.70277 49.2578C5.70277 49.2578 5.70277 49.2578 5.70277 49.2435C5.73146 48.9853 5.83187 48.7988 6.09006 48.3972C6.1044 48.3828 6.1044 48.3828 6.1044 48.3685C6.26219 48.139 6.33391 48.0099 6.40563 47.8521L6.14744 47.7373C6.09006 47.8664 6.01834 47.9812 5.8749 48.2107C5.86055 48.225 5.86055 48.225 5.86055 48.2394C5.60236 48.6123 5.48761 48.8418 5.43023 49.1H5.41588C5.41588 49.1 5.41589 49.1 5.40154 49.1H5.37285C5.34416 49.0857 5.30113 49.057 5.24376 48.9996C4.68433 48.1103 5.129 47.35 6.39129 46.4033C6.54907 46.2886 7.07981 45.9156 7.22325 45.8009C7.25194 45.8009 7.28062 45.7865 7.30931 45.7722C8.0839 46.432 8.98758 47.0058 9.99167 47.4791C9.99167 47.4935 10.006 47.5078 10.0204 47.5222C9.43225 47.6656 8.97323 47.9668 8.16996 48.6554ZM32.2538 47.0918C32.6985 47.8377 32.6841 48.4402 32.1247 48.8562C32.0817 48.7701 32.053 48.6697 31.9956 48.5263C31.9956 48.5119 31.9956 48.5119 31.9813 48.4976C31.7804 47.9525 31.6513 47.723 31.4075 47.4648L31.2067 47.6656C31.4218 47.8664 31.5222 48.0816 31.7231 48.5836C31.7231 48.598 31.7231 48.598 31.7374 48.6123C31.8091 48.7988 31.8522 48.9136 31.8952 49.014C31.5222 49.3295 31.1923 49.3869 30.8481 49.2291C30.5468 49.1 30.26 48.8275 29.8009 48.3111C29.7723 48.2824 29.7436 48.2394 29.7149 48.1963C29.7005 48.182 29.6862 48.1677 29.6718 48.139C29.6432 48.1103 29.6432 48.1103 29.6288 48.0816C29.0981 47.4648 28.7825 47.1349 28.4382 46.9484C29.2415 46.4894 29.9587 45.973 30.6042 45.3706C31.2067 45.8152 31.8808 46.4751 32.2538 47.0918ZM32.4546 42.4443C31.221 44.9259 29.0407 46.6759 26.1145 47.7373C23.6186 48.641 20.6637 49.014 17.6084 48.8992C12.3441 48.7127 7.78267 46.8767 5.64539 43.4054C4.21098 41.096 3.73762 38.1554 3.86672 34.1104C3.90975 33.0059 3.96713 32.0161 4.11057 30.2088C4.26835 28.1719 4.31139 27.5838 4.35442 26.6658C4.38311 26.0059 4.38311 25.3318 4.36876 24.6146C4.34007 23.3523 4.26835 22.3482 4.08188 20.0962C3.82368 17.1126 3.75196 15.8073 3.78065 14.172C3.82368 12.0204 4.11057 10.127 4.71302 8.33395C5.68842 5.42209 7.48144 3.45694 10.0634 2.18031C12.2294 1.11884 14.8543 0.573766 18.426 0.286883C21.7682 0.286883 24.2067 0.58811 26.3153 1.36269C28.8399 2.29506 30.719 3.9303 32.0099 6.44052C32.8419 8.47739 33.3296 10.672 33.5878 13.1966C33.7886 15.1187 33.8316 16.6679 33.846 20.1822V21.3011C33.8603 23.0367 33.889 24.256 33.9607 25.4752C33.9894 25.9486 34.0038 26.1494 34.0755 27.2826C34.2333 29.7211 34.2907 30.9834 34.305 32.4465C34.3337 36.5632 33.8173 39.7333 32.4546 42.4443ZM36.8439 26.7375C36.8296 26.7375 36.8152 26.7232 36.8009 26.7232C36.5427 26.6371 36.4566 26.5797 36.3706 26.4793L36.1411 26.6514C36.2702 26.8236 36.3993 26.8953 36.6861 26.9957C36.6288 27.5121 36.3849 27.6986 35.9689 27.6555C35.596 27.6268 35.1083 27.3973 34.7066 27.1248C34.5919 27.0387 34.4771 26.9813 34.3624 26.924C34.348 26.924 34.3337 26.9096 34.3193 26.9096C34.262 26.1207 34.262 25.9199 34.2333 25.5039C34.2189 25.2457 34.2046 24.9875 34.1903 24.7293C34.9935 24.7437 35.7825 24.9875 36.3849 25.4322C36.6001 25.59 36.8583 25.8912 36.973 26.1494C37.1165 26.3932 37.0878 26.6084 36.8439 26.7375Z" fill="black"/>
<g id="Group_2">
<path id="Vector_7" d="M20.5863 14.9652C20.6007 15.6968 20.7441 16.5 20.615 17.2746C20.4142 17.6476 20.0413 17.6906 19.7113 17.834C19.2523 17.7623 18.865 17.4611 18.6786 17.0308C18.5638 16.1558 18.7072 15.3238 18.7503 14.4488C18.7503 14.4201 19.2954 14.4632 19.7831 14.6066C20.199 14.7357 20.5863 14.9509 20.5863 14.9652Z" fill="white"/>
<path id="Vector_8" d="M16.527 15.0226C16.1253 16.5431 17.0577 19.0246 18.5925 16.9878C18.4778 16.1271 18.6069 15.2952 18.6499 14.4489C18.6642 14.3771 16.5413 14.9222 16.527 15.0226Z" fill="white"/>
<path id="Vector_9" d="M20.7585 15.6394C20.7298 15.2091 20.7154 15.0369 20.7154 14.8218V14.7214L20.615 14.6927L18.8077 14.1332V14.0328L18.6212 14.0759H18.6068V14.0902L16.57 14.6066L16.4982 14.6209L16.4696 14.6927C16.154 15.4529 16.2257 16.6004 16.6273 17.3033C17.0864 18.1066 17.8323 18.1209 18.5925 17.2029C18.8077 17.6189 19.2093 17.9058 19.6683 17.9775H19.7113L19.7544 17.9631C19.8117 17.9344 19.8691 17.9201 19.9695 17.8771C19.9839 17.8771 19.9839 17.8771 19.9982 17.8627C20.4142 17.7193 20.5863 17.6045 20.7298 17.332L20.7441 17.3176V17.289C20.7871 17.0308 20.8015 16.7582 20.8015 16.457C20.8015 16.2418 20.7871 16.041 20.7585 15.6394ZM18.4634 15.1086C18.4491 15.3668 18.4347 15.4673 18.4204 15.6107C18.3917 16.1414 18.3917 16.5431 18.4347 16.9447C17.7605 17.8053 17.2298 17.8053 16.8712 17.1599C16.5269 16.5574 16.4552 15.539 16.7134 14.8648L18.5208 14.4058C18.5064 14.5923 18.4921 14.7787 18.4634 15.1086ZM20.4716 17.2316C20.3712 17.4037 20.2421 17.4898 19.8978 17.6045C19.8835 17.6045 19.8835 17.6045 19.8691 17.6189C19.7831 17.6476 19.7257 17.6763 19.6826 17.6906C19.2954 17.6189 18.9654 17.3607 18.8077 17.0021C18.7646 16.6148 18.7646 16.2131 18.7933 15.6824C18.8077 15.539 18.8077 15.4386 18.8363 15.1804C18.865 14.8505 18.8794 14.6496 18.8794 14.4632L20.4429 14.9365C20.4429 15.123 20.4572 15.2951 20.4859 15.6681C20.5146 16.0554 20.529 16.2562 20.529 16.4857C20.529 16.7582 20.5146 17.0021 20.4716 17.2316Z" fill="black"/>
</g>
<g id="Group_3">
<path id="Vector_10" d="M7.89236 8.71567C9.21202 13.8509 17.4312 12.5312 17.1157 7.38166C16.7427 1.21367 6.63008 2.40424 7.89236 8.71567Z" fill="white"/>
<path id="Vector_11" d="M17.2591 7.36732C17.173 5.87553 16.5132 4.71366 15.4231 3.98211C14.4477 3.32227 13.1567 3.06408 11.8801 3.22187C10.6034 3.394 9.4272 3.96776 8.65262 4.87144C7.79197 5.87553 7.46206 7.19519 7.76328 8.71567L7.89238 8.68699L7.76328 8.71567C9.11163 13.9943 17.5747 12.7177 17.2591 7.36732ZM8.02148 8.68699C7.73459 7.23823 8.05017 6.00463 8.85344 5.07226C9.58499 4.22596 10.6895 3.66653 11.9087 3.50875C13.128 3.35096 14.3472 3.59481 15.2653 4.22596C16.2837 4.91448 16.9005 5.99029 16.9866 7.41036C17.2878 12.4165 9.29811 13.6214 8.02148 8.68699Z" fill="black"/>
<path id="Vector_12" d="M10.1588 9.37555C10.9272 9.37555 11.5502 8.70123 11.5502 7.86942C11.5502 7.0376 10.9272 6.36328 10.1588 6.36328C9.39034 6.36328 8.7674 7.0376 8.7674 7.86942C8.7674 8.70123 9.39034 9.37555 10.1588 9.37555Z" fill="black"/>
<path id="Vector_13" d="M10.7899 8.601C10.9721 8.601 11.1198 8.4276 11.1198 8.21371C11.1198 7.99981 10.9721 7.82642 10.7899 7.82642C10.6077 7.82642 10.46 7.99981 10.46 8.21371C10.46 8.4276 10.6077 8.601 10.7899 8.601Z" fill="white"/>
</g>
<g id="Group_4">
<path id="Vector_14" d="M19.4192 7.75557C20.4376 13.651 30.0769 12.0875 28.6855 6.14902C27.4376 0.812998 19.0749 2.29045 19.4192 7.75557Z" fill="white"/>
<path id="Vector_15" d="M28.8147 6.12035C27.538 0.62654 18.9315 2.13268 19.2758 7.76993V7.78427C19.7492 10.567 22.2307 11.9871 24.9704 11.5281C26.2184 11.3129 27.3372 10.7105 28.0688 9.82114C28.872 8.83139 29.1589 7.55476 28.8147 6.12035ZM27.8536 9.64901C27.1651 10.481 26.118 11.0547 24.9274 11.2556C22.3311 11.6859 20.0073 10.3519 19.5483 7.74124C19.2328 2.4339 27.3516 1.01383 28.5565 6.17773C28.872 7.54042 28.6138 8.73098 27.8536 9.64901Z" fill="black"/>
<path id="Vector_16" d="M21.786 9.0036C22.5386 9.0036 23.1487 8.32928 23.1487 7.49747C23.1487 6.66565 22.5386 5.99133 21.786 5.99133C21.0334 5.99133 20.4233 6.66565 20.4233 7.49747C20.4233 8.32928 21.0334 9.0036 21.786 9.0036Z" fill="black"/>
<path id="Vector_17" d="M22.4172 8.22905C22.5915 8.22905 22.7328 8.05566 22.7328 7.84176C22.7328 7.62786 22.5915 7.45447 22.4172 7.45447C22.2429 7.45447 22.1016 7.62786 22.1016 7.84176C22.1016 8.05566 22.2429 8.22905 22.4172 8.22905Z" fill="white"/>
</g>
<g id="Group_5">
<path id="Vector_18" d="M16.8231 11.9238C15.6899 12.0242 14.7719 13.3582 15.36 14.4197C16.1346 15.8254 17.8702 14.2906 18.946 14.434C20.194 14.4627 21.2124 15.7537 22.2022 14.6635C23.3067 13.4586 21.7288 12.2824 20.4809 11.766L16.8231 11.9238Z" fill="#F6D2A2"/>
<path id="Vector_19" d="M22.3456 12.8848C21.9583 12.3971 21.2841 11.9524 20.5526 11.6512L20.5239 11.6368H20.4952L16.8231 11.7803C15.5464 11.895 14.6284 13.3725 15.2452 14.4913C15.4891 14.9217 15.819 15.1368 16.2637 15.1655C16.5936 15.1798 16.9378 15.1081 17.4686 14.9217C17.5116 14.9073 17.569 14.893 17.6407 14.8643C18.3579 14.6204 18.6448 14.5487 18.9317 14.5917H18.946C19.2903 14.5917 19.5772 14.6921 20.1222 14.9073C20.7247 15.1512 20.9112 15.2229 21.2124 15.2516C21.6284 15.2803 21.987 15.1368 22.3169 14.7782C22.8763 14.1614 22.8476 13.5016 22.3456 12.8848ZM22.1017 14.5774C21.8292 14.8786 21.5566 14.979 21.2267 14.9647C20.9685 14.9503 20.7964 14.8786 20.2226 14.6491C19.6489 14.4053 19.3333 14.3192 18.9604 14.3049C18.6017 14.2618 18.3005 14.3335 17.5403 14.5917C17.4686 14.6204 17.4112 14.6348 17.3682 14.6491C16.321 15.0077 15.819 14.979 15.4747 14.3479C14.9583 13.4155 15.7473 12.1532 16.8231 12.0528L20.4521 11.9094C21.1407 12.1963 21.7575 12.6122 22.1161 13.0569C22.5464 13.5733 22.5607 14.0897 22.1017 14.5774Z" fill="#231F20"/>
<g id="Group_6">
<path id="Vector_20" d="M20.7678 11.307C20.3231 9.67176 16.5936 9.91561 16.6797 11.8664C16.8662 13.3152 21.1981 12.9279 20.7678 11.307Z" fill="black"/>
</g>
</g>
</g>
</svg>
