<svg width="50" height="55" viewBox="0 0 50 55" fill="none" xmlns="http://www.w3.org/2000/svg">
<path fill-rule="evenodd" clip-rule="evenodd" d="M6.94191 49.502L2.92969 0H47.0171L43.0007 49.4942L24.9464 55L6.94191 49.502Z" fill="#E44D26"/>
<path fill-rule="evenodd" clip-rule="evenodd" d="M24.9734 50.7916L39.5621 46.3426L42.9945 4.04752H24.9734V50.7916Z" fill="#F16529"/>
<path d="M17.67 22.4071H24.9734V28.4783H12.6223L11.1337 10.1188H24.9734V16.1901H17.1656L17.67 22.4071Z" fill="#EBEBEB"/>
<path d="M24.9492 38.1818L24.9734 38.1747V44.4913L24.948 44.4991L13.6422 41.0466L12.8689 31.514H18.4094L18.8024 36.356L24.9492 38.1818Z" fill="#EBEBEB"/>
<path d="M24.9543 10.1188H38.7802L38.286 16.1901H24.9543V10.1188Z" fill="white"/>
<path d="M24.9543 28.4783V22.4071H37.7838L37.6492 24.0374L36.2692 41.0466L24.9543 44.4961V38.1798L31.1101 36.3522L31.7507 28.4783H24.9543Z" fill="white"/>
</svg>
