<svg width="50" height="55" viewBox="0 0 50 55" fill="none" xmlns="http://www.w3.org/2000/svg">
<path fill-rule="evenodd" clip-rule="evenodd" d="M0 0H50V55H0V0Z" fill="#F7DF1E"/>
<path fill-rule="evenodd" clip-rule="evenodd" d="M13.1468 45.962L16.9732 43.4148C17.7113 44.8545 18.3828 46.0726 19.9936 46.0726C21.5375 46.0726 22.5109 45.4083 22.5109 42.8241V25.2503H27.2097V42.8972C27.2097 48.2505 24.357 50.6872 20.195 50.6872C16.4362 50.6872 14.2543 48.5458 13.1467 45.9616" fill="black"/>
<path fill-rule="evenodd" clip-rule="evenodd" d="M29.762 45.4082L33.5878 42.9715C34.595 44.7807 35.9039 46.1097 38.2197 46.1097C40.1666 46.1097 41.4081 45.039 41.4081 43.5622C41.4081 41.7901 40.1328 41.1624 37.9847 40.129L36.8103 39.5748C33.4202 37.9875 31.1714 35.9939 31.1714 31.785C31.1714 27.9085 33.8564 24.9548 38.052 24.9548C41.0391 24.9548 43.1871 26.0994 44.7309 29.0899L41.0724 31.6742C40.2669 30.0868 39.3945 29.4592 38.052 29.4592C36.6759 29.4592 35.8032 30.4191 35.8032 31.6742C35.8032 33.2248 36.6759 33.8526 38.6895 34.8126L39.8641 35.3663C43.8582 37.2493 46.107 39.1689 46.107 43.4883C46.107 48.1405 42.7843 50.6877 38.3205 50.6877C33.9573 50.6877 31.1379 48.3988 29.762 45.4082" fill="black"/>
</svg>
