<svg width="30" height="68" viewBox="0 0 30 68" fill="none" xmlns="http://www.w3.org/2000/svg">
<path fill-rule="evenodd" clip-rule="evenodd" d="M16.4313 66.7111L14.6578 66.1052C14.6578 66.1052 14.8743 57.0645 11.6301 56.4158C9.46725 53.9069 11.9761 -49.9965 19.7622 56.0697C19.7622 56.0697 17.0805 57.4106 16.6045 59.7033C16.0853 61.9528 16.4313 66.7111 16.4313 66.7111Z" fill="white"/>
<path fill-rule="evenodd" clip-rule="evenodd" d="M16.4313 66.7111L14.6578 66.1052C14.6578 66.1052 14.8743 57.0645 11.6301 56.4158C9.46725 53.9069 11.9761 -49.9965 19.7622 56.0697C19.7622 56.0697 17.0805 57.4106 16.6045 59.7033C16.0853 61.9528 16.4313 66.7111 16.4313 66.7111Z" fill="#A6A385"/>
<path fill-rule="evenodd" clip-rule="evenodd" d="M17.3832 57.9732C17.3832 57.9732 32.9123 47.7645 29.2788 26.5251C25.7751 11.0825 17.5127 6.02146 16.6045 4.07475C15.6097 2.6906 14.6578 0.268345 14.6578 0.268345L15.3069 43.2223C15.3069 43.2656 13.9657 56.3725 17.3832 57.9732Z" fill="white"/>
<path fill-rule="evenodd" clip-rule="evenodd" d="M17.3832 57.9732C17.3832 57.9732 32.9123 47.7645 29.2788 26.5251C25.7751 11.0825 17.5127 6.02146 16.6045 4.07475C15.6097 2.6906 14.6578 0.268345 14.6578 0.268345L15.3069 43.2223C15.3069 43.2656 13.9657 56.3725 17.3832 57.9732Z" fill="#499D4A"/>
<path fill-rule="evenodd" clip-rule="evenodd" d="M13.7496 58.5353C13.7496 58.5353 -0.82806 48.586 0.0372347 31.0672C0.85882 13.548 11.1541 4.94001 13.1437 3.38264C14.4417 1.9985 14.485 1.47924 14.5716 0.095089C15.4798 2.0418 15.307 29.2071 15.4365 32.4081C15.8258 44.7363 14.7444 56.1996 13.7496 58.5353Z" fill="white"/>
<path fill-rule="evenodd" clip-rule="evenodd" d="M13.7496 58.5353C13.7496 58.5353 -0.82806 48.586 0.0372347 31.0672C0.85882 13.548 11.1541 4.94001 13.1437 3.38264C14.4417 1.9985 14.485 1.47924 14.5716 0.095089C15.4798 2.0418 15.307 29.2071 15.4365 32.4081C15.8258 44.7363 14.7444 56.1996 13.7496 58.5353Z" fill="#58AA50"/>
</svg>
