<svg width="44" height="54" viewBox="0 0 44 54" fill="none" xmlns="http://www.w3.org/2000/svg">
<path fill-rule="evenodd" clip-rule="evenodd" d="M21.6263 53.6113C20.9547 53.6113 20.3278 53.4143 19.7457 53.0695L13.7907 49.1786C12.8952 48.6368 13.3429 48.4398 13.6116 48.3413C14.8205 47.898 15.0444 47.7995 16.2981 47.0115C16.4324 46.9129 16.6115 46.9622 16.7458 47.0607L21.3129 50.0651C21.492 50.1636 21.7158 50.1636 21.8502 50.0651L39.7154 38.6878C39.8945 38.5893 39.984 38.3923 39.984 38.146V15.4406C39.984 15.1944 39.8945 14.9974 39.7154 14.8989L21.8502 3.5708C21.6711 3.4723 21.4472 3.4723 21.3129 3.5708L3.44767 14.8989C3.26857 14.9974 3.17902 15.2436 3.17902 15.4406V38.146C3.17902 38.343 3.26857 38.5893 3.44767 38.6878L8.32814 41.7907C10.9699 43.2683 12.6265 41.5444 12.6265 39.8206V17.4107C12.6265 17.1152 12.8504 16.8197 13.1638 16.8197H15.4474C15.716 16.8197 15.9847 17.066 15.9847 17.4107V39.8206C15.9847 43.7115 14.0593 45.9772 10.7012 45.9772C9.67139 45.9772 8.86544 45.9772 6.58192 44.7458L1.88055 41.7907C0.716399 41.0519 0 39.6728 0 38.1953V15.4899C0 14.0123 0.716399 12.6333 1.88055 11.8945L19.7457 0.51715C20.8651 -0.172383 22.3875 -0.172383 23.5068 0.51715L41.372 11.8945C42.5362 12.6333 43.2526 14.0123 43.2526 15.4899V38.1953C43.2526 39.6728 42.5362 41.0519 41.372 41.7907L23.5068 53.168C22.9248 53.4635 22.2531 53.6113 21.6263 53.6113ZM27.1336 37.9983C19.298 37.9983 17.6861 34.0581 17.6861 30.7089C17.6861 30.4134 17.91 30.1179 18.2234 30.1179H20.5517C20.8203 30.1179 21.0442 30.3149 21.0442 30.6104C21.4024 33.2208 22.4322 34.5013 27.1784 34.5013C30.9395 34.5013 32.5514 33.5655 32.5514 31.3492C32.5514 30.0686 32.1036 29.1328 26.2381 28.4925C21.3576 27.9508 18.313 26.7687 18.313 22.4837C18.313 18.4943 21.3576 16.1302 26.462 16.1302C32.1932 16.1302 35.014 18.2973 35.3722 23.0255C35.3722 23.1733 35.3274 23.321 35.2379 23.4688C35.1483 23.5673 35.014 23.6658 34.8797 23.6658H32.5514C32.3275 23.6658 32.1036 23.4688 32.0589 23.2225C31.5216 20.5136 30.1335 19.6271 26.462 19.6271C22.3427 19.6271 21.8502 21.2032 21.8502 22.3852C21.8502 23.8136 22.4322 24.2568 27.9843 25.0449C33.4917 25.8329 36.0886 26.9657 36.0886 31.2014C36.0438 35.5356 32.82 37.9983 27.1336 37.9983Z" fill="#539E43"/>
</svg>
