<svg width="50" height="49" viewBox="0 0 50 49" fill="none" xmlns="http://www.w3.org/2000/svg">
<path d="M41.11 15.8605C40.5913 15.6642 40.0539 15.4783 39.5005 15.3026C39.5914 14.8943 39.6749 14.4912 39.7491 14.095C40.9675 7.58933 40.1709 2.3483 37.4506 0.622723C34.8423 -1.03187 30.5764 0.693309 26.2682 4.81761C25.8539 5.2142 25.4384 5.63409 25.0231 6.07415C24.7464 5.78299 24.4702 5.50163 24.1946 5.23251C19.6794 0.822536 15.1536 -1.03589 12.4361 0.694679C9.83015 2.35407 9.05844 7.28115 10.1552 13.4466C10.2611 14.0422 10.3849 14.6503 10.5249 15.2686C9.88435 15.4687 9.26599 15.6819 8.67432 15.9087C3.38073 17.9389 0 21.1206 0 24.4209C0 27.8294 3.62921 31.2483 9.1429 33.3213C9.57802 33.4849 10.0295 33.6395 10.4948 33.7864C10.3438 34.4551 10.2124 35.1105 10.1021 35.7497C9.05639 41.8082 9.87305 46.6188 12.472 48.2677C15.1565 49.9706 19.6618 48.2203 24.0489 44.002C24.3956 43.6685 24.7436 43.3149 25.0922 42.9443C25.5441 43.4229 25.9952 43.8759 26.4439 44.3008C30.6933 48.3232 34.8902 49.9474 37.4868 48.2939C40.1686 46.5861 41.0402 41.4183 39.9086 35.1308C39.8222 34.6506 39.7216 34.1601 39.6087 33.6608C39.9251 33.5579 40.2357 33.4517 40.5386 33.3412C46.2706 31.2522 50 27.8749 50 24.4209C50 21.1086 46.5102 17.9055 41.11 15.8605ZM39.8668 31.111C39.5934 31.2106 39.3129 31.3068 39.027 31.4001C38.3942 29.1965 37.5402 26.8533 36.4951 24.4323C37.4924 22.069 38.3134 19.7558 38.9285 17.5664C39.44 17.7292 39.9364 17.901 40.4148 18.0822C45.0417 19.8343 47.864 22.4248 47.864 24.4209C47.864 26.547 44.816 29.3071 39.8668 31.111ZM37.8132 35.5872C38.3136 38.3674 38.3851 40.8811 38.0536 42.8461C37.7558 44.6118 37.157 45.789 36.4165 46.2605C34.8407 47.2638 31.4711 45.9597 27.8369 42.5197C27.4203 42.1254 27.0007 41.7043 26.5797 41.2587C27.9886 39.5637 29.3967 37.5933 30.7709 35.405C33.188 35.169 35.4717 34.7833 37.5426 34.2567C37.6446 34.7093 37.7352 35.1532 37.8132 35.5872ZM17.0461 46.0871C15.5066 46.6852 14.2805 46.7023 13.5393 46.2322C11.9621 45.2316 11.3065 41.3691 12.2008 36.1879C12.3033 35.5945 12.4252 34.985 12.5657 34.3619C14.614 34.8601 16.8809 35.2187 19.3038 35.4347C20.6873 37.5761 22.136 39.5443 23.5959 41.2678C23.277 41.6065 22.9592 41.929 22.6433 42.2328C20.7034 44.0981 18.7594 45.4215 17.0461 46.0871ZM9.83371 31.098C7.39567 30.1814 5.38223 28.99 4.00212 27.69C2.76201 26.5218 2.13589 25.362 2.13589 24.4209C2.13589 22.4181 4.85029 19.8636 9.37741 18.1274C9.92672 17.9167 10.5017 17.7182 11.0985 17.5317C11.7241 19.7704 12.5449 22.1111 13.5354 24.478C12.5321 26.8801 11.6997 29.2581 11.0679 31.5231C10.6425 31.3885 10.2303 31.247 9.83371 31.098ZM12.2514 12.9954C11.3117 7.71298 11.9358 3.72809 13.5062 2.72814C15.1789 1.6629 18.8778 3.18171 22.7764 6.9895C23.0256 7.23288 23.2757 7.48761 23.5266 7.75116C22.0739 9.46704 20.6384 11.4205 19.2672 13.5492C16.9157 13.789 14.6647 14.1741 12.5951 14.6899C12.465 14.1141 12.3497 13.5485 12.2514 12.9954ZM33.8191 18.8536C33.3244 17.9136 32.8165 16.9958 32.2987 16.103C33.894 16.3249 35.4224 16.6194 36.8578 16.9797C36.4269 18.4989 35.8898 20.0873 35.2575 21.7157C34.804 20.7685 34.3243 19.8135 33.8191 18.8536ZM25.0239 9.43033C26.0091 10.6044 26.9957 11.9153 27.9662 13.3376C26.9882 13.2868 25.9982 13.2603 25 13.2603C24.0112 13.2603 23.0285 13.2862 22.0566 13.3361C23.028 11.9271 24.0232 10.6179 25.0239 9.43033ZM16.1722 18.8699C15.678 19.8125 15.2072 20.7624 14.7608 21.7139C14.1388 20.0913 13.6067 18.4956 13.172 16.9549C14.5986 16.6037 16.1198 16.3166 17.705 16.0989C17.1799 16.9999 16.6678 17.9245 16.1722 18.8697V18.8699ZM17.7506 32.9104C16.1129 32.7094 14.5687 32.437 13.1425 32.0956C13.5841 30.5273 14.128 28.8976 14.7632 27.24C15.2108 28.1909 15.6835 29.1411 16.1807 30.0858H16.1808C16.6873 31.0482 17.212 31.991 17.7506 32.9104ZM25.0829 39.577C24.0706 38.3755 23.0608 37.0464 22.0746 35.6168C23.032 35.6581 24.008 35.6793 25 35.6793C26.0191 35.6793 27.0266 35.654 28.0182 35.6055C27.0446 37.0608 26.0615 38.392 25.0829 39.577ZM35.2779 27.1555C35.9462 28.831 36.5096 30.4522 36.9569 31.9938C35.5072 32.3576 33.9419 32.6506 32.2928 32.8683C32.8118 31.9635 33.3242 31.0299 33.8277 30.0696C34.337 29.0981 34.8206 28.1251 35.2779 27.1555ZM31.9775 28.8958C31.1959 30.3865 30.3934 31.8096 29.5788 33.1529C28.0951 33.2696 26.5623 33.3297 25 33.3297C23.444 33.3297 21.9305 33.2765 20.473 33.1725C19.6256 31.8116 18.8057 30.3843 18.0291 28.9087H18.0293C17.2547 27.437 16.5419 25.953 15.8959 24.4772C16.5417 22.9981 17.2527 21.5124 18.0228 20.0434L18.0226 20.0437C18.7948 18.5708 19.6074 17.1505 20.4471 15.7981C21.9341 15.6744 23.4589 15.6099 24.9999 15.6099H25C26.548 15.6099 28.0747 15.6749 29.5613 15.7997C30.3881 17.1421 31.1952 18.5579 31.9704 20.031C32.7544 21.5206 33.4746 22.9964 34.1259 24.4439C33.4766 25.9162 32.758 27.4069 31.9775 28.8958ZM36.3837 2.65824C38.0581 3.72035 38.7092 8.00384 37.6572 13.6208C37.5901 13.9792 37.5146 14.3443 37.4325 14.7142C35.3581 14.1877 33.1055 13.7959 30.7471 13.5526C29.3732 11.4005 27.9495 9.44394 26.5205 7.75008C26.9047 7.34351 27.2884 6.95583 27.6704 6.58998C31.3618 3.0563 34.8118 1.66114 36.3837 2.65824ZM25 19.5095C27.4658 19.5095 29.4648 21.7084 29.4648 24.4209C29.4648 27.1333 27.4658 29.3322 25 29.3322C22.5342 29.3322 20.5352 27.1333 20.5352 24.4209C20.5352 21.7084 22.5342 19.5095 25 19.5095Z" fill="#00D8FF"/>
</svg>
