<svg width="50" height="33" viewBox="0 0 50 33" fill="none" xmlns="http://www.w3.org/2000/svg">
<path d="M25 0C18.3333 0 14.1667 3.66667 12.5 11C15 7.33333 17.9167 5.95833 21.25 6.875C23.1519 7.39801 24.5112 8.9157 26.0158 10.5958C28.4669 13.3325 31.3038 16.5 37.5 16.5C44.1667 16.5 48.3333 12.8333 50 5.5C47.5 9.16667 44.5833 10.5417 41.25 9.625C39.3481 9.10199 37.9888 7.5843 36.4842 5.90425C34.0331 3.16749 31.1962 0 25 0ZM12.5 16.5C5.83333 16.5 1.66667 20.1667 0 27.5C2.5 23.8333 5.41667 22.4583 8.75 23.375C10.6519 23.898 12.0112 25.4157 13.5158 27.0958C15.9669 29.8325 18.8038 33 25 33C31.6667 33 35.8333 29.3333 37.5 22C35 25.6667 32.0833 27.0417 28.75 26.125C26.8481 25.602 25.4888 24.0843 23.9842 22.4043C21.5331 19.6675 18.6962 16.5 12.5 16.5Z" fill="url(#paint0_linear_46_818)"/>
<defs>
<linearGradient id="paint0_linear_46_818" x1="-1.38889" y1="10.56" x2="43.7488" y2="34.2194" gradientUnits="userSpaceOnUse">
<stop stop-color="#2298BD"/>
<stop offset="1" stop-color="#0ED7B5"/>
</linearGradient>
</defs>
</svg>
