<svg width="50" height="55" viewBox="0 0 50 55" fill="none" xmlns="http://www.w3.org/2000/svg">
<path d="M5.34079 27.4992C5.34079 36.0593 9.863 43.4561 16.4206 46.962L7.04284 18.6984C5.91866 21.4675 5.33866 24.4665 5.34079 27.4992Z" fill="#21759B"/>
<path d="M38.2715 26.4079C38.2715 23.7354 37.3988 21.8845 36.6502 20.4439C36.5734 20.3065 36.4969 20.1708 36.4212 20.0364C35.5153 18.4283 34.72 17.0167 34.72 15.3728C34.72 13.3849 36.0902 11.5344 38.0209 11.5344C38.077 11.5344 38.1312 11.5394 38.1856 11.5443C38.2156 11.5471 38.2456 11.5498 38.276 11.5517C34.778 8.02694 30.1181 5.87488 25 5.87488C18.132 5.87488 12.0895 9.75106 8.5743 15.6221C9.03554 15.6373 9.47059 15.6476 9.83943 15.6476C11.8957 15.6476 15.0787 15.3732 15.0787 15.3732C16.1385 15.3045 16.2634 17.0166 15.2052 17.1545C15.2052 17.1545 14.1398 17.2923 12.9547 17.3606L20.1138 40.7844L24.4164 26.5911L21.3531 17.3602C20.2945 17.2919 19.2916 17.1541 19.2916 17.1541C18.2322 17.0858 18.3564 15.304 19.4158 15.3728C19.4158 15.3728 22.6624 15.6472 24.5941 15.6472C26.65 15.6472 29.8334 15.3728 29.8334 15.3728C30.8939 15.304 31.0185 17.0162 29.9595 17.1541C29.9595 17.1541 28.8923 17.2919 27.7094 17.3602L34.8139 40.6066L36.7744 33.3986L36.9284 32.8581C37.7015 30.1454 38.2715 28.1458 38.2715 26.4079Z" fill="#21759B"/>
<path d="M25.345 29.3908L19.4465 48.2441C21.2499 48.8287 23.1201 49.1255 25.0001 49.1255C27.2894 49.1255 29.4849 48.6898 31.5285 47.8997C31.4737 47.8053 31.4268 47.7056 31.3886 47.6018L25.345 29.3908Z" fill="#21759B"/>
<path d="M42.2503 17.124C42.3348 17.8129 42.3827 18.5527 42.3827 19.3477C42.3827 21.5421 42.0101 24.009 40.8879 27.0935L34.8828 46.1917C40.7274 42.4426 44.6586 35.4774 44.6586 27.4992C44.6638 23.8728 43.8354 20.3038 42.2503 17.124Z" fill="#21759B"/>
<path fill-rule="evenodd" clip-rule="evenodd" d="M2.08333 27.4992C2.08333 13.5997 12.3641 2.29169 25 2.29169C37.6356 2.29169 47.9175 13.5997 47.9179 27.4992C47.9179 41.4008 37.6356 52.7084 25 52.7084C12.3637 52.7084 2.08333 41.4004 2.08333 27.4992ZM3.13411 27.4992C3.13411 40.7621 12.9435 51.5525 25 51.5525C37.0558 51.5525 46.8648 40.7621 46.8648 27.4992C46.8648 14.2375 37.0562 3.44796 25 3.44796C12.9432 3.44796 3.13411 14.2375 3.13411 27.4992Z" fill="#21759B"/>
</svg>
